<?xml version="1.0" standalone="no"?>
<!DOCTYPE svg PUBLIC "-//W3C//DTD SVG 20010904//EN"
 "http://www.w3.org/TR/2001/REC-SVG-20010904/DTD/svg10.dtd">
<svg version="1.0" xmlns="http://www.w3.org/2000/svg"
 width="500.000000pt" height="500.000000pt" viewBox="0 0 500.000000 500.000000"
 preserveAspectRatio="xMidYMid meet">
<metadata>
Created by potrace 1.14, written by Peter Selinger 2001-2017
</metadata>
<g transform="translate(0.000000,500.000000) scale(0.100000,-0.100000)"
fill="#000000" stroke="none">
<path d="M0 2500 l0 -2500 2500 0 2500 0 0 2500 0 2500 -2500 0 -2500 0 0
-2500z m3992 1032 c160 -43 281 -109 392 -213 148 -138 247 -330 270 -521 l6
-48 -59 0 -58 0 -16 81 c-39 199 -188 407 -361 504 -141 79 -287 110 -478 102
-146 -6 -212 -22 -333 -81 -217 -107 -384 -313 -446 -551 -41 -156 -37 -755 6
-920 19 -73 81 -206 124 -266 135 -187 353 -320 564 -345 l57 -7 0 542 0 541
511 0 512 0 -6 -202 c-5 -199 -12 -245 -55 -383 -80 -253 -310 -477 -587 -572
-269 -92 -574 -59 -816 89 -116 71 -258 216 -322 328 -52 94 -100 230 -119
342 -18 104 -18 751 0 833 44 201 129 361 264 494 129 129 286 217 468 262
105 26 369 21 482 -9z m-3362 -887 l0 -865 825 0 825 0 0 -295 0 -295 -885 0
-885 0 0 1160 0 1160 60 0 60 0 0 -865z"/>
<path d="M3780 1749 l0 -482 66 7 c36 4 102 19 148 34 358 121 565 428 566
840 l0 82 -390 0 -390 0 0 -481z"/>
</g>
</svg>
